<svg xmlns="http://www.w3.org/2000/svg" xmlns:xlink="http://www.w3.org/1999/xlink" viewBox="0 0 500 500"><defs><clipPath id="freepik--clip-path--inject-78"><polygon points="212.3 248.17 194.97 248.17 194.97 226.25 206.52 226.25 212.3 232.03 212.3 248.17" style="fill:#92E3A9;stroke:#263238;stroke-linecap:round;stroke-linejoin:round"></polygon></clipPath><clipPath id="freepik--clip-path-2--inject-78"><polygon points="212.3 293.17 194.97 293.17 194.97 271.25 206.52 271.25 212.3 277.03 212.3 293.17" style="fill:#92E3A9;stroke:#263238;stroke-linecap:round;stroke-linejoin:round"></polygon></clipPath><clipPath id="freepik--clip-path-3--inject-78"><polygon points="224.22 201.27 192.13 201.27 192.13 160.68 213.52 160.68 224.22 171.37 224.22 201.27" style="fill:#92E3A9;stroke:#263238;stroke-linecap:round;stroke-linejoin:round"></polygon></clipPath><clipPath id="freepik--clip-path-4--inject-78"><polygon points="212.3 338.18 194.97 338.18 194.97 316.26 206.52 316.26 212.3 322.03 212.3 338.18" style="fill:#92E3A9;stroke:#263238;stroke-linecap:round;stroke-linejoin:round"></polygon></clipPath><clipPath id="freepik--clip-path-5--inject-78"><polygon points="385.56 225.8 381.18 224.21 377 228.25 380.06 215.75 383.75 212.85 385.63 214.04 394.03 213.72 400.56 214.25 403.67 213.29 406.99 216.61 399.6 230.74 396.5 225.39 389.66 226.24 385.56 225.8" style="fill:#92E3A9;stroke:#263238;stroke-linecap:round;stroke-linejoin:round"></polygon></clipPath><clipPath id="freepik--clip-path-6--inject-78"><path d="M400.11,216.57l-1-15.28L389.45,203l-2,7.18-2,6.22-.95.1,2.63,14.28,13.94-14Z" style="fill:#858585;stroke:#263238;stroke-linecap:round;stroke-linejoin:round"></path></clipPath><clipPath id="freepik--clip-path-7--inject-78"><rect x="394.62" y="293.1" width="36.41" height="23.39" rx="1.77" transform="translate(54.84 -62.86) rotate(9.32)" style="fill:#92E3A9;stroke:#263238;stroke-linecap:round;stroke-linejoin:round"></rect></clipPath><clipPath id="freepik--clip-path-8--inject-78"><polygon points="121.94 214.79 123.76 223.76 103.54 224.61 107.05 199.75 120.67 201.33 121.94 214.79" style="fill:#fff;stroke:#263238;stroke-linecap:round;stroke-linejoin:round"></polygon></clipPath></defs><g id="freepik--background-simple--inject-78"><path d="M151.67,237.67c0,43.61-55.65,82.84-77.09,121.87-33.46,60.91,28.67,105.81,116.3,105.81,133.51,0,290.1-172.41,252.75-308.91C428.47,101.05,373.75,48.79,297.45,39.86,139,21.33,79.16,96.69,79.16,152.3,79.16,210,151.67,200.54,151.67,237.67Z" style="fill:#92E3A9"></path><path d="M151.67,237.67c0,43.61-55.65,82.84-77.09,121.87-33.46,60.91,28.67,105.81,116.3,105.81,133.51,0,290.1-172.41,252.75-308.91C428.47,101.05,373.75,48.79,297.45,39.86,139,21.33,79.16,96.69,79.16,152.3,79.16,210,151.67,200.54,151.67,237.67Z" style="fill:#fff;opacity:0.7000000000000001"></path></g><g id="freepik--Windows--inject-78"><rect x="349.01" y="167.35" width="89.32" height="202.62" style="fill:none;stroke:#263238;stroke-linecap:round;stroke-linejoin:round;stroke-width:0.75px"></rect><rect x="356.85" y="175.19" width="73.64" height="186.94" style="fill:none;stroke:#263238;stroke-linecap:round;stroke-linejoin:round;stroke-width:0.75px"></rect><line x1="365.22" y1="257.73" x2="363.21" y2="261.22" style="fill:none;stroke:#263238;stroke-linecap:round;stroke-linejoin:round;stroke-width:0.75px"></line><line x1="386.36" y1="221.13" x2="367.54" y2="253.73" style="fill:none;stroke:#263238;stroke-linecap:round;stroke-linejoin:round;stroke-width:0.75px"></line><line x1="403.63" y1="191.21" x2="389.37" y2="215.91" style="fill:none;stroke:#263238;stroke-linecap:round;stroke-linejoin:round;stroke-width:0.75px"></line><line x1="406.65" y1="185.99" x2="405.13" y2="188.61" style="fill:none;stroke:#263238;stroke-linecap:round;stroke-linejoin:round;stroke-width:0.75px"></line><line x1="371.21" y1="346.58" x2="369.5" y2="349.54" style="fill:none;stroke:#263238;stroke-linecap:round;stroke-linejoin:round;stroke-width:0.75px"></line><line x1="375.17" y1="339.72" x2="373.36" y2="342.87" style="fill:none;stroke:#263238;stroke-linecap:round;stroke-linejoin:round;stroke-width:0.75px"></line><line x1="399.32" y1="297.89" x2="379.05" y2="333.01" style="fill:none;stroke:#263238;stroke-linecap:round;stroke-linejoin:round;stroke-width:0.75px"></line><line x1="417.27" y1="266.8" x2="401.4" y2="294.3" style="fill:none;stroke:#263238;stroke-linecap:round;stroke-linejoin:round;stroke-width:0.75px"></line><line x1="421.2" y1="260" x2="419.63" y2="262.72" style="fill:none;stroke:#263238;stroke-linecap:round;stroke-linejoin:round;stroke-width:0.75px"></line><line x1="393.67" y1="324.21" x2="379.05" y2="349.54" style="fill:none;stroke:#263238;stroke-linecap:round;stroke-linejoin:round;stroke-width:0.75px"></line><line x1="412.37" y1="291.82" x2="395.8" y2="320.52" style="fill:none;stroke:#263238;stroke-linecap:round;stroke-linejoin:round;stroke-width:0.75px"></line><line x1="416.26" y1="285.09" x2="414.3" y2="288.48" style="fill:none;stroke:#263238;stroke-linecap:round;stroke-linejoin:round;stroke-width:0.75px"></line><line x1="363.21" y1="283.95" x2="360.99" y2="287.8" style="fill:none;stroke:#263238;stroke-linecap:round;stroke-linejoin:round;stroke-width:0.75px"></line><line x1="382.64" y1="250.3" x2="364.99" y2="280.87" style="fill:none;stroke:#263238;stroke-linecap:round;stroke-linejoin:round;stroke-width:0.75px"></line><line x1="406.89" y1="208.3" x2="384.72" y2="246.69" style="fill:none;stroke:#263238;stroke-linecap:round;stroke-linejoin:round;stroke-width:0.75px"></line><line x1="421.46" y1="183.06" x2="408.6" y2="205.34" style="fill:none;stroke:#263238;stroke-linecap:round;stroke-linejoin:round;stroke-width:0.75px"></line><rect x="61.67" y="167.35" width="89.32" height="202.62" style="fill:none;stroke:#263238;stroke-linecap:round;stroke-linejoin:round;stroke-width:0.75px"></rect><rect x="69.51" y="175.19" width="73.64" height="186.94" style="fill:none;stroke:#263238;stroke-linecap:round;stroke-linejoin:round;stroke-width:0.75px"></rect><line x1="77.88" y1="257.73" x2="75.87" y2="261.22" style="fill:none;stroke:#263238;stroke-linecap:round;stroke-linejoin:round;stroke-width:0.75px"></line><line x1="99.01" y1="221.13" x2="80.19" y2="253.73" style="fill:none;stroke:#263238;stroke-linecap:round;stroke-linejoin:round;stroke-width:0.75px"></line><line x1="116.29" y1="191.21" x2="102.03" y2="215.91" style="fill:none;stroke:#263238;stroke-linecap:round;stroke-linejoin:round;stroke-width:0.75px"></line><line x1="119.3" y1="185.99" x2="117.79" y2="188.61" style="fill:none;stroke:#263238;stroke-linecap:round;stroke-linejoin:round;stroke-width:0.75px"></line><line x1="83.87" y1="346.58" x2="82.16" y2="349.54" style="fill:none;stroke:#263238;stroke-linecap:round;stroke-linejoin:round;stroke-width:0.75px"></line><line x1="87.83" y1="339.72" x2="86.01" y2="342.87" style="fill:none;stroke:#263238;stroke-linecap:round;stroke-linejoin:round;stroke-width:0.75px"></line><line x1="111.98" y1="297.89" x2="91.7" y2="333.01" style="fill:none;stroke:#263238;stroke-linecap:round;stroke-linejoin:round;stroke-width:0.75px"></line><line x1="129.93" y1="266.8" x2="114.05" y2="294.3" style="fill:none;stroke:#263238;stroke-linecap:round;stroke-linejoin:round;stroke-width:0.75px"></line><line x1="133.86" y1="260" x2="132.28" y2="262.72" style="fill:none;stroke:#263238;stroke-linecap:round;stroke-linejoin:round;stroke-width:0.75px"></line><line x1="106.33" y1="324.21" x2="91.7" y2="349.54" style="fill:none;stroke:#263238;stroke-linecap:round;stroke-linejoin:round;stroke-width:0.75px"></line><line x1="125.03" y1="291.82" x2="108.46" y2="320.52" style="fill:none;stroke:#263238;stroke-linecap:round;stroke-linejoin:round;stroke-width:0.75px"></line><line x1="128.91" y1="285.09" x2="126.96" y2="288.48" style="fill:none;stroke:#263238;stroke-linecap:round;stroke-linejoin:round;stroke-width:0.75px"></line><line x1="75.87" y1="283.95" x2="73.64" y2="287.8" style="fill:none;stroke:#263238;stroke-linecap:round;stroke-linejoin:round;stroke-width:0.75px"></line><line x1="95.29" y1="250.3" x2="77.64" y2="280.87" style="fill:none;stroke:#263238;stroke-linecap:round;stroke-linejoin:round;stroke-width:0.75px"></line><line x1="119.54" y1="208.3" x2="97.38" y2="246.69" style="fill:none;stroke:#263238;stroke-linecap:round;stroke-linejoin:round;stroke-width:0.75px"></line><line x1="134.11" y1="183.06" x2="121.25" y2="205.34" style="fill:none;stroke:#263238;stroke-linecap:round;stroke-linejoin:round;stroke-width:0.75px"></line></g><g id="freepik--Floor--inject-78"><g id="freepik--freepik--Table--inject-4--inject-78"><line x1="29.5" y1="454.43" x2="470.5" y2="454.43" style="fill:none;stroke:#263238;stroke-linecap:round;stroke-linejoin:round"></line></g></g><g id="freepik--Shelf--inject-78"><rect x="175.04" y="375.21" width="7.65" height="26.01" style="fill:#92E3A9"></rect><rect x="175.04" y="375.21" width="7.65" height="26.01" style="opacity:0.2"></rect><rect x="182.7" y="378.07" width="7.65" height="23.15" style="fill:#92E3A9"></rect><rect x="194.5" y="378.07" width="5.4" height="23.15" style="fill:#92E3A9"></rect><rect x="194.5" y="378.07" width="5.4" height="23.15" style="fill:#fff;opacity:0.9"></rect><rect x="189.61" y="375.63" width="4.9" height="25.6" style="fill:#92E3A9"></rect><rect x="189.61" y="375.63" width="4.9" height="25.6" style="opacity:0.1"></rect><rect x="199.91" y="375.21" width="7.65" height="26.01" style="fill:#92E3A9"></rect><rect x="207.56" y="378.07" width="7.65" height="23.15" style="fill:#92E3A9"></rect><rect x="207.56" y="378.07" width="7.65" height="23.15" style="fill:#263238;opacity:0.2"></rect><rect x="219.37" y="378.07" width="5.4" height="23.15" style="fill:#92E3A9"></rect><rect x="219.37" y="378.07" width="5.4" height="23.15" style="fill:#fff;opacity:0.8"></rect><rect x="214.47" y="375.63" width="4.9" height="25.6" style="fill:#92E3A9"></rect><rect x="214.47" y="375.63" width="4.9" height="25.6" style="opacity:0.1"></rect><rect x="261.26" y="375.21" width="7.65" height="26.01" transform="translate(530.18 776.44) rotate(180)" style="fill:#92E3A9"></rect><rect x="261.26" y="375.21" width="7.65" height="26.01" transform="translate(530.18 776.44) rotate(180)" style="opacity:0.2"></rect><rect x="253.61" y="378.07" width="7.65" height="23.15" transform="translate(514.87 779.3) rotate(180)" style="fill:#92E3A9"></rect><rect x="244.05" y="378.07" width="5.4" height="23.15" transform="translate(493.51 779.3) rotate(180)" style="fill:#92E3A9"></rect><rect x="244.05" y="378.07" width="5.4" height="23.15" transform="translate(493.51 779.3) rotate(180)" style="fill:#fff;opacity:0.9"></rect><rect x="249.46" y="375.63" width="4.9" height="25.6" transform="translate(503.81 776.85) rotate(180)" style="fill:#92E3A9"></rect><rect x="249.46" y="375.63" width="4.9" height="25.6" transform="translate(503.81 776.85) rotate(180)" style="opacity:0.1"></rect><rect x="236.4" y="375.21" width="7.65" height="26.01" transform="translate(480.45 776.44) rotate(180)" style="fill:#92E3A9"></rect><rect x="228.75" y="378.07" width="7.65" height="23.15" transform="translate(465.15 779.3) rotate(180)" style="fill:#92E3A9"></rect><rect x="228.75" y="378.07" width="7.65" height="23.15" transform="translate(465.15 779.3) rotate(180)" style="fill:#263238;opacity:0.2"></rect><rect x="224.59" y="375.63" width="4.9" height="25.6" transform="translate(454.08 776.85) rotate(180)" style="fill:#92E3A9"></rect><rect x="224.59" y="375.63" width="4.9" height="25.6" transform="translate(454.08 776.85) rotate(180)" style="opacity:0.1"></rect><rect x="305.36" y="375.21" width="7.65" height="26.01" transform="translate(618.38 776.44) rotate(180)" style="fill:#92E3A9"></rect><rect x="305.36" y="375.21" width="7.65" height="26.01" transform="translate(618.38 776.44) rotate(180)" style="opacity:0.2"></rect><rect x="297.71" y="378.07" width="7.65" height="23.15" transform="translate(603.07 779.3) rotate(180)" style="fill:#92E3A9"></rect><rect x="288.15" y="378.07" width="5.4" height="23.15" transform="translate(581.71 779.3) rotate(180)" style="fill:#92E3A9"></rect><rect x="288.15" y="378.07" width="5.4" height="23.15" transform="translate(581.71 779.3) rotate(180)" style="fill:#fff;opacity:0.9"></rect><rect x="293.56" y="375.63" width="4.9" height="25.6" transform="translate(592.01 776.85) rotate(180)" style="fill:#92E3A9"></rect><rect x="293.56" y="375.63" width="4.9" height="25.6" transform="translate(592.01 776.85) rotate(180)" style="opacity:0.1"></rect><rect x="280.5" y="375.21" width="7.65" height="26.01" transform="translate(568.65 776.44) rotate(180)" style="fill:#92E3A9"></rect><rect x="316.3" y="375.21" width="5.18" height="26.01" transform="matrix(-0.97, 0.26, -0.26, -0.97, 727.39, 680.68)" style="fill:#92E3A9"></rect><rect x="272.85" y="378.07" width="7.65" height="23.15" transform="translate(553.35 779.3) rotate(180)" style="fill:#92E3A9"></rect><rect x="272.85" y="378.07" width="7.65" height="23.15" transform="translate(553.35 779.3) rotate(180)" style="fill:#263238;opacity:0.2"></rect><rect x="268.69" y="375.63" width="4.9" height="25.6" transform="translate(542.28 776.85) rotate(180)" style="fill:#92E3A9"></rect><rect x="268.69" y="375.63" width="4.9" height="25.6" transform="translate(542.28 776.85) rotate(180)" style="opacity:0.1"></rect><rect x="317.1" y="408.76" width="5.32" height="26.01" transform="translate(737.79 746.4) rotate(165)" style="fill:#92E3A9"></rect><rect x="317.1" y="408.76" width="5.32" height="26.01" transform="translate(737.79 746.4) rotate(165)" style="opacity:0.2"></rect><rect x="307.35" y="411.62" width="7.65" height="23.15" transform="translate(622.36 846.38) rotate(180)" style="fill:#92E3A9"></rect><rect x="297.8" y="411.62" width="5.4" height="23.15" transform="translate(600.99 846.38) rotate(180)" style="fill:#92E3A9"></rect><rect x="297.8" y="411.62" width="5.4" height="23.15" transform="translate(600.99 846.38) rotate(180)" style="fill:#fff;opacity:0.9"></rect><rect x="303.2" y="409.17" width="4.9" height="25.6" transform="translate(611.29 843.94) rotate(180)" style="fill:#92E3A9"></rect><rect x="303.2" y="409.17" width="4.9" height="25.6" transform="translate(611.29 843.94) rotate(180)" style="opacity:0.1"></rect><rect x="290.14" y="408.76" width="7.65" height="26.01" transform="translate(587.94 843.53) rotate(180)" style="fill:#92E3A9"></rect><rect x="282.49" y="411.62" width="7.65" height="23.15" transform="translate(572.63 846.38) rotate(180)" style="fill:#92E3A9"></rect><rect x="282.49" y="411.62" width="7.65" height="23.15" transform="translate(572.63 846.38) rotate(180)" style="fill:#263238;opacity:0.2"></rect><rect x="272.93" y="411.62" width="5.4" height="23.15" transform="translate(551.27 846.38) rotate(180)" style="fill:#92E3A9"></rect><rect x="272.93" y="411.62" width="5.4" height="23.15" transform="translate(551.27 846.38) rotate(180)" style="fill:#fff;opacity:0.8"></rect><rect x="278.34" y="409.17" width="4.9" height="25.6" transform="translate(561.57 843.94) rotate(180)" style="fill:#92E3A9"></rect><rect x="278.34" y="409.17" width="4.9" height="25.6" transform="translate(561.57 843.94) rotate(180)" style="opacity:0.1"></rect><rect x="228.79" y="408.76" width="7.65" height="26.01" style="fill:#92E3A9"></rect><rect x="228.79" y="408.76" width="7.65" height="26.01" style="opacity:0.2"></rect><rect x="236.44" y="411.62" width="7.65" height="23.15" style="fill:#92E3A9"></rect><rect x="248.25" y="411.62" width="5.4" height="23.15" style="fill:#92E3A9"></rect><rect x="248.25" y="411.62" width="5.4" height="23.15" style="fill:#fff;opacity:0.9"></rect><rect x="243.35" y="409.17" width="4.9" height="25.6" style="fill:#92E3A9"></rect><rect x="243.35" y="409.17" width="4.9" height="25.6" style="opacity:0.1"></rect><rect x="253.65" y="408.76" width="7.65" height="26.01" style="fill:#92E3A9"></rect><rect x="261.3" y="411.62" width="7.65" height="23.15" style="fill:#92E3A9"></rect><rect x="261.3" y="411.62" width="7.65" height="23.15" style="fill:#263238;opacity:0.2"></rect><rect x="268.21" y="409.17" width="4.9" height="25.6" style="fill:#92E3A9"></rect><rect x="268.21" y="409.17" width="4.9" height="25.6" style="opacity:0.1"></rect><rect x="184.69" y="408.76" width="7.65" height="26.01" style="fill:#92E3A9"></rect><rect x="184.69" y="408.76" width="7.65" height="26.01" style="opacity:0.2"></rect><rect x="192.34" y="411.62" width="7.65" height="23.15" style="fill:#92E3A9"></rect><rect x="204.15" y="411.62" width="5.4" height="23.15" style="fill:#92E3A9"></rect><rect x="204.15" y="411.62" width="5.4" height="23.15" style="fill:#fff;opacity:0.9"></rect><rect x="199.25" y="409.17" width="4.9" height="25.6" style="fill:#92E3A9"></rect><rect x="199.25" y="409.17" width="4.9" height="25.6" style="opacity:0.1"></rect><rect x="209.55" y="408.76" width="7.65" height="26.01" style="fill:#92E3A9"></rect><rect x="176.22" y="408.76" width="5.18" height="26.01" transform="translate(115.25 -31.91) rotate(15)" style="fill:#92E3A9"></rect><rect x="217.2" y="411.62" width="7.65" height="23.15" style="fill:#92E3A9"></rect><rect x="217.2" y="411.62" width="7.65" height="23.15" style="fill:#263238;opacity:0.2"></rect><rect x="224.11" y="409.17" width="4.9" height="25.6" style="fill:#92E3A9"></rect><rect x="224.11" y="409.17" width="4.9" height="25.6" style="opacity:0.1"></rect><polygon points="180.92 454.43 173.27 454.43 172.22 439.63 181.97 439.63 180.92 454.43" style="fill:#263238"></polygon><polygon points="326.73 454.43 319.08 454.43 318.03 439.63 327.78 439.63 326.73 454.43" style="fill:#263238"></polygon><path d="M335.16,365.39H164.84a3.67,3.67,0,0,0-3.67,3.67v69.58a3.67,3.67,0,0,0,3.67,3.67H335.16a3.67,3.67,0,0,0,3.67-3.67V369.06A3.67,3.67,0,0,0,335.16,365.39Zm-3.68,7.35v28.49h-163V372.74ZM168.52,435V406.48h163V435Z" style="fill:#fff;stroke:#263238;stroke-linecap:round;stroke-linejoin:round;stroke-width:0.75px"></path></g><g id="freepik--Tasks--inject-78"><rect x="185.27" y="219.24" width="131.57" height="39.02" rx="6.86" style="fill:#263238;stroke:#263238;stroke-linecap:round;stroke-linejoin:round"></rect><rect x="183.17" y="217.14" width="131.57" height="39.02" rx="6.86" style="fill:#fff;stroke:#263238;stroke-linecap:round;stroke-linejoin:round"></rect><rect x="183.17" y="217.14" width="131.57" height="39.02" rx="6.86" style="fill:none;stroke:#263238;stroke-linecap:round;stroke-linejoin:round"></rect><polygon points="212.3 248.17 194.97 248.17 194.97 226.25 206.52 226.25 212.3 232.03 212.3 248.17" style="fill:#92E3A9"></polygon><g style="clip-path:url(#freepik--clip-path--inject-78)"><polygon points="212.3 248.17 194.97 248.17 194.97 226.25 206.52 226.25 212.3 232.03 212.3 248.17" style="fill:#fff;opacity:0.5"></polygon></g><polygon points="212.3 248.17 194.97 248.17 194.97 226.25 206.52 226.25 212.3 232.03 212.3 248.17" style="fill:none;stroke:#263238;stroke-linecap:round;stroke-linejoin:round"></polygon><polygon points="206.52 232.03 212.3 232.03 206.52 226.25 206.52 232.03" style="fill:#92E3A9;stroke:#263238;stroke-linecap:round;stroke-linejoin:round"></polygon><path d="M198.82,237.88a1.1,1.1,0,0,1,0-2.19h9.63a1.1,1.1,0,0,1,0,2.19Z" style="fill:#858585;stroke:#263238;stroke-linecap:round;stroke-linejoin:round;stroke-width:0.75px"></path><path d="M198.82,242.49a1.1,1.1,0,0,1,0-2.19h7.53a1.1,1.1,0,0,1,0,2.19Z" style="fill:#858585;stroke:#263238;stroke-linecap:round;stroke-linejoin:round;stroke-width:0.75px"></path><path d="M256.11,239.14H223.86a2.27,2.27,0,0,0,0,4.53h32.25Z" style="fill:#92E3A9"></path><path d="M223.86,243.67a2.27,2.27,0,0,1,0-4.53h76.8a2.27,2.27,0,1,1,0,4.53Z" style="fill:none;stroke:#263238;stroke-linecap:round;stroke-linejoin:round"></path><path d="M256.84,233h-2.43v-1.15l2.31-5.47h1.39v5.47h.6V233h-.6v1.47h-1.27Zm0-1.15V228.7h0l-1.25,3.16Z" style="fill:#263238"></path><path d="M259.3,232.56v-.63h1.2v.72c0,.58.25.79.66.79s.66-.21.66-.79v-1.81c0-.58-.26-.8-.66-.8s-.66.22-.66.8v.07h-1.2l.23-4.52h3.35v1.16h-2.22l-.1,1.93h0a1.2,1.2,0,0,1,1.1-.59c.93,0,1.41.66,1.41,1.85v1.82c0,1.3-.65,2-1.9,2S259.3,233.86,259.3,232.56Z" style="fill:#263238"></path><path d="M263.88,229.59v-2a1.23,1.23,0,1,1,2.45,0v2a1.23,1.23,0,1,1-2.45,0Zm1.64.06v-2.14c0-.35-.16-.5-.41-.5s-.42.15-.42.5v2.14c0,.36.15.51.42.51S265.52,230,265.52,229.65Zm2.52-3.26h.81l-3.13,8.09h-.81Zm-.61,6.91v-2a1.23,1.23,0,1,1,2.45,0v2a1.23,1.23,0,1,1-2.45,0Zm1.64.06v-2.14c0-.36-.16-.51-.42-.51s-.41.15-.41.51v2.14c0,.36.15.51.41.51S269.07,233.72,269.07,233.36Z" style="fill:#263238"></path><rect x="185.27" y="264.52" width="131.57" height="39.02" rx="6.86" style="fill:#263238;stroke:#263238;stroke-linecap:round;stroke-linejoin:round"></rect><rect x="183.17" y="262.42" width="131.57" height="39.02" rx="6.86" style="fill:#fff;stroke:#263238;stroke-linecap:round;stroke-linejoin:round"></rect><path d="M281.55,284.14H223.86a2.27,2.27,0,0,0,0,4.53h57.69Z" style="fill:#92E3A9"></path><path d="M223.86,288.67a2.27,2.27,0,0,1,0-4.53h76.8a2.27,2.27,0,1,1,0,4.53Z" style="fill:none;stroke:#263238;stroke-linecap:round;stroke-linejoin:round"></path><path d="M254.56,277.6v-.72a1.67,1.67,0,0,1,.83-1.65v0a1.6,1.6,0,0,1-.78-1.59v-.33a1.94,1.94,0,1,1,3.88,0v.33a1.63,1.63,0,0,1-.79,1.59v0a1.67,1.67,0,0,1,.84,1.65v.72a2,2,0,1,1-4,0Zm2.71-.07v-.78c0-.61-.25-.91-.72-.91s-.72.3-.72.91v.78c0,.61.25.91.72.91S257.27,278.14,257.27,277.53Zm0-3.65v-.64c0-.53-.23-.81-.67-.81s-.67.28-.67.81v.64c0,.53.23.81.67.81S257.22,274.41,257.22,273.88Z" style="fill:#263238"></path><path d="M259.3,277.56v-.63h1.2v.72c0,.58.25.79.66.79s.66-.21.66-.79v-1.81c0-.58-.26-.8-.66-.8s-.66.22-.66.8v.07h-1.2l.23-4.52h3.35v1.16h-2.22l-.1,1.93h0a1.2,1.2,0,0,1,1.1-.59c.93,0,1.41.66,1.41,1.85v1.82a1.9,1.9,0,1,1-3.79,0Z" style="fill:#263238"></path><path d="M263.88,274.59v-2a1.23,1.23,0,1,1,2.45,0v2a1.23,1.23,0,1,1-2.45,0Zm1.64.06v-2.14c0-.35-.16-.51-.41-.51s-.42.16-.42.51v2.14c0,.36.15.51.42.51S265.52,275,265.52,274.65Zm2.52-3.26h.81l-3.13,8.09h-.81Zm-.61,6.91v-2a1.23,1.23,0,1,1,2.45,0v2a1.23,1.23,0,1,1-2.45,0Zm1.64.06v-2.14c0-.36-.16-.51-.42-.51s-.41.15-.41.51v2.14c0,.36.15.51.41.51S269.07,278.72,269.07,278.36Z" style="fill:#263238"></path><polygon points="212.3 293.17 194.97 293.17 194.97 271.25 206.52 271.25 212.3 277.03 212.3 293.17" style="fill:#92E3A9"></polygon><g style="clip-path:url(#freepik--clip-path-2--inject-78)"><polygon points="212.3 293.17 194.97 293.17 194.97 271.25 206.52 271.25 212.3 277.03 212.3 293.17" style="fill:#fff;stroke:#263238;stroke-linecap:round;stroke-linejoin:round;opacity:0.5"></polygon></g><polygon points="212.3 293.17 194.97 293.17 194.97 271.25 206.52 271.25 212.3 277.03 212.3 293.17" style="fill:none;stroke:#263238;stroke-linecap:round;stroke-linejoin:round"></polygon><path d="M198.82,282.88a1.1,1.1,0,0,1,0-2.19h9.63a1.1,1.1,0,0,1,0,2.19Z" style="fill:#858585;stroke:#263238;stroke-linecap:round;stroke-linejoin:round;stroke-width:0.75px"></path><path d="M198.82,287.49a1.1,1.1,0,0,1,0-2.19h7.53a1.1,1.1,0,0,1,0,2.19Z" style="fill:#858585;stroke:#263238;stroke-linecap:round;stroke-linejoin:round;stroke-width:0.75px"></path><polygon points="206.52 277.03 212.3 277.03 206.52 271.25 206.52 277.03" style="fill:#92E3A9;stroke:#263238;stroke-linecap:round;stroke-linejoin:round"></polygon><rect x="169.15" y="158.78" width="163.8" height="48.59" rx="6.86" style="fill:#263238;stroke:#263238;stroke-linecap:round;stroke-linejoin:round"></rect><rect x="167.05" y="156.68" width="163.8" height="48.59" rx="6.86" style="fill:#fff;stroke:#263238;stroke-linecap:round;stroke-linejoin:round"></rect><polygon points="224.22 201.27 192.13 201.27 192.13 160.68 213.52 160.68 224.22 171.37 224.22 201.27" style="fill:#92E3A9"></polygon><g style="clip-path:url(#freepik--clip-path-3--inject-78)"><polygon points="224.22 201.27 192.13 201.27 192.13 160.68 213.52 160.68 224.22 171.37 224.22 201.27" style="fill:#fff;opacity:0.7000000000000001"></polygon></g><polygon points="224.22 201.27 192.13 201.27 192.13 160.68 213.52 160.68 224.22 171.37 224.22 201.27" style="fill:none;stroke:#263238;stroke-linecap:round;stroke-linejoin:round"></polygon><polygon points="213.52 171.37 224.22 171.37 213.52 160.68 213.52 171.37" style="fill:#92E3A9;stroke:#263238;stroke-linecap:round;stroke-linejoin:round"></polygon><rect x="195.3" y="176.37" width="6.3" height="6.3" style="fill:none;stroke:#fff;stroke-linecap:round;stroke-linejoin:round;stroke-width:0.75px"></rect><rect x="201.78" y="176.37" width="6.3" height="6.3" style="fill:none;stroke:#fff;stroke-linecap:round;stroke-linejoin:round;stroke-width:0.75px"></rect><rect x="208.27" y="176.37" width="6.3" height="6.3" style="fill:none;stroke:#fff;stroke-linecap:round;stroke-linejoin:round;stroke-width:0.75px"></rect><rect x="214.75" y="176.37" width="6.3" height="6.3" style="fill:none;stroke:#fff;stroke-linecap:round;stroke-linejoin:round;stroke-width:0.75px"></rect><rect x="195.3" y="182.67" width="6.3" height="6.3" style="fill:none;stroke:#fff;stroke-linecap:round;stroke-linejoin:round;stroke-width:0.75px"></rect><rect x="201.78" y="182.67" width="6.3" height="6.3" style="fill:none;stroke:#fff;stroke-linecap:round;stroke-linejoin:round;stroke-width:0.75px"></rect><rect x="208.27" y="182.67" width="6.3" height="6.3" style="fill:none;stroke:#fff;stroke-linecap:round;stroke-linejoin:round;stroke-width:0.75px"></rect><rect x="214.75" y="182.67" width="6.3" height="6.3" style="fill:none;stroke:#fff;stroke-linecap:round;stroke-linejoin:round;stroke-width:0.75px"></rect><rect x="195.3" y="188.97" width="6.3" height="6.3" style="fill:none;stroke:#fff;stroke-linecap:round;stroke-linejoin:round;stroke-width:0.75px"></rect><rect x="201.78" y="188.97" width="6.3" height="6.3" style="fill:none;stroke:#fff;stroke-linecap:round;stroke-linejoin:round;stroke-width:0.75px"></rect><rect x="208.27" y="188.97" width="6.3" height="6.3" style="fill:none;stroke:#fff;stroke-linecap:round;stroke-linejoin:round;stroke-width:0.75px"></rect><rect x="214.75" y="188.97" width="6.3" height="6.3" style="fill:none;stroke:#fff;stroke-linecap:round;stroke-linejoin:round;stroke-width:0.75px"></rect><polyline points="195.42 194.66 201.78 188.82 204.93 188.97 208.37 182.76 211.42 185.82 214.84 182.23 217.9 176.37" style="fill:none;stroke:#92E3A9;stroke-linecap:round;stroke-linejoin:round;stroke-width:2px"></polyline><polyline points="214.29 178.2 217.9 176.37 218.63 180.31" style="fill:none;stroke:#92E3A9;stroke-linecap:round;stroke-linejoin:round;stroke-width:2px"></polyline><path d="M236.84,179.68H235v-1.22c1.46,0,2-.32,2.38-1.39h1.16v11h-1.73Z" style="fill:#263238"></path><path d="M240.59,185.48v-5.8a2.63,2.63,0,1,1,5.26,0v5.8a2.63,2.63,0,1,1-5.26,0Zm3.53.11v-6c0-.78-.35-1.08-.9-1.08s-.9.3-.9,1.08v6c0,.79.35,1.09.9,1.09S244.12,186.38,244.12,185.59Z" style="fill:#263238"></path><path d="M246.89,185.48v-5.8a2.63,2.63,0,1,1,5.26,0v5.8a2.63,2.63,0,1,1-5.26,0Zm3.53.11v-6c0-.78-.35-1.08-.9-1.08s-.9.3-.9,1.08v6c0,.79.35,1.09.9,1.09S250.42,186.38,250.42,185.59Z" style="fill:#263238"></path><path d="M253.22,181.43v-2.75a1.67,1.67,0,1,1,3.34,0v2.75a1.67,1.67,0,1,1-3.34,0Zm2.24.08V178.6c0-.49-.22-.7-.57-.7s-.57.21-.57.7v2.91c0,.49.21.69.57.69S255.46,182,255.46,181.51Zm3.43-4.44H260l-4.27,11h-1.1Zm-.84,9.42v-2.76a1.67,1.67,0,1,1,3.34,0v2.76a1.67,1.67,0,1,1-3.34,0Zm2.24.08v-2.92c0-.49-.22-.69-.57-.69s-.56.2-.56.69v2.92c0,.48.2.69.56.69S260.29,187.05,260.29,186.57Z" style="fill:#263238"></path><path d="M264.19,184.65V180.3a1.87,1.87,0,1,1,3.74,0v.86h-1.2v-.94c0-.53-.26-.75-.64-.75s-.63.22-.63.75v4.52c0,.53.25.74.63.74s.64-.21.64-.74V183.5h1.2v1.15a1.87,1.87,0,1,1-3.74,0Z" style="fill:#263238"></path><path d="M268.62,184.6v-4.25a1.93,1.93,0,1,1,3.86,0v4.25a1.93,1.93,0,1,1-3.86,0Zm2.59.08v-4.41c0-.58-.25-.8-.66-.8s-.66.22-.66.8v4.41c0,.58.26.8.66.8S271.21,185.26,271.21,184.68Z" style="fill:#263238"></path><path d="M273.33,178.43h1.82l.81,5.79h0l.81-5.79h1.81v8.09h-1.2V180.4h0l-.93,6.12h-1.06l-.92-6.12h0v6.12h-1.11Z" style="fill:#263238"></path><path d="M279.55,178.43h1.87c1.27,0,1.89.71,1.89,2v.8c0,1.29-.62,2-1.89,2h-.6v3.29h-1.27Zm1.87,3.64c.4,0,.62-.18.62-.76v-1c0-.58-.22-.76-.62-.76h-.6v2.48Z" style="fill:#263238"></path><path d="M284,178.43h1.27v6.93h2.09v1.16H284Z" style="fill:#263238"></path><path d="M288,178.43h3.46v1.16h-2.19v2.13H291v1.16h-1.74v2.48h2.19v1.16H288Z" style="fill:#263238"></path><path d="M293.16,179.59h-1.32v-1.16h3.92v1.16h-1.33v6.93h-1.27Z" style="fill:#263238"></path><path d="M296.38,178.43h3.46v1.16h-2.19v2.13h1.74v1.16h-1.74v2.48h2.19v1.16h-3.46Z" style="fill:#263238"></path><path d="M300.57,178.43h1.94c1.27,0,1.89.71,1.89,2v4.09c0,1.29-.62,2-1.89,2h-1.94Zm1.91,6.93c.41,0,.65-.21.65-.78v-4.21c0-.57-.24-.78-.65-.78h-.64v5.77Z" style="fill:#263238"></path><rect x="185.27" y="309.81" width="131.57" height="39.02" rx="6.86" style="fill:#263238;stroke:#263238;stroke-linecap:round;stroke-linejoin:round"></rect><rect x="183.17" y="307.71" width="131.57" height="39.02" rx="6.86" style="fill:#fff;stroke:#263238;stroke-linecap:round;stroke-linejoin:round"></rect><path d="M277.48,329.15H223.86a2.26,2.26,0,0,0,0,4.52h53.62Z" style="fill:#92E3A9"></path><path d="M223.86,333.67a2.26,2.26,0,0,1,0-4.52h76.8a2.26,2.26,0,1,1,0,4.52Z" style="fill:none;stroke:#263238;stroke-linecap:round;stroke-linejoin:round"></path><polygon points="212.3 338.18 194.97 338.18 194.97 316.26 206.52 316.26 212.3 322.03 212.3 338.18" style="fill:#92E3A9"></polygon><g style="clip-path:url(#freepik--clip-path-4--inject-78)"><polygon points="212.3 338.18 194.97 338.18 194.97 316.26 206.52 316.26 212.3 322.03 212.3 338.18" style="fill:#fff;opacity:0.5"></polygon></g><polygon points="212.3 338.18 194.97 338.18 194.97 316.26 206.52 316.26 212.3 322.03 212.3 338.18" style="fill:none;stroke:#263238;stroke-linecap:round;stroke-linejoin:round"></polygon><path d="M198.82,327.89a1.1,1.1,0,0,1,0-2.19h9.63a1.1,1.1,0,0,1,0,2.19Z" style="fill:#858585;stroke:#263238;stroke-linecap:round;stroke-linejoin:round;stroke-width:0.75px"></path><path d="M198.82,332.49a1.09,1.09,0,1,1,0-2.18h7.53a1.09,1.09,0,1,1,0,2.18Z" style="fill:#858585;stroke:#263238;stroke-linecap:round;stroke-linejoin:round;stroke-width:0.75px"></path><polygon points="206.52 322.03 212.3 322.03 206.52 316.26 206.52 322.03" style="fill:#92E3A9;stroke:#263238;stroke-linecap:round;stroke-linejoin:round"></polygon><path d="M257.2,317.55h-2.57V316.4h3.81v1.11l-2,7h-1.3Z" style="fill:#263238"></path><path d="M259.24,322.57v-4.25a1.93,1.93,0,1,1,3.86,0v4.25a1.93,1.93,0,1,1-3.86,0Zm2.59.08v-4.41c0-.58-.26-.8-.66-.8s-.66.22-.66.8v4.41c0,.58.26.79.66.79S261.83,323.23,261.83,322.65Z" style="fill:#263238"></path><path d="M263.88,319.6v-2a1.23,1.23,0,1,1,2.45,0v2a1.23,1.23,0,1,1-2.45,0Zm1.64.06v-2.14c0-.36-.16-.51-.41-.51s-.42.15-.42.51v2.14c0,.35.15.5.42.5S265.52,320,265.52,319.66ZM268,316.4h.81l-3.13,8.08h-.81Zm-.61,6.91v-2a1.23,1.23,0,1,1,2.45,0v2a1.23,1.23,0,1,1-2.45,0Zm1.64.05v-2.13c0-.36-.16-.51-.42-.51s-.41.15-.41.51v2.13c0,.36.15.51.41.51S269.07,323.72,269.07,323.36Z" style="fill:#263238"></path></g><g id="freepik--Lamps--inject-78"><polygon points="118.44 110.2 144.83 89.8 171.22 110.2 118.44 110.2" style="fill:#263238;stroke:#263238;stroke-linecap:round;stroke-linejoin:round"></polygon><rect x="137.93" y="88.2" width="13.8" height="11.8" style="fill:#263238;stroke:#263238;stroke-linecap:round;stroke-linejoin:round"></rect><line x1="144.83" y1="58.88" x2="144.83" y2="100" style="fill:none;stroke:#263238;stroke-linecap:round;stroke-linejoin:round;stroke-width:0.75px"></line><polygon points="328.77 110.2 355.17 89.8 381.56 110.2 328.77 110.2" style="fill:#263238;stroke:#263238;stroke-linecap:round;stroke-linejoin:round"></polygon><rect x="348.27" y="88.2" width="13.8" height="11.8" style="fill:#263238;stroke:#263238;stroke-linecap:round;stroke-linejoin:round"></rect><line x1="355.17" y1="56.88" x2="355.17" y2="100" style="fill:none;stroke:#263238;stroke-linecap:round;stroke-linejoin:round;stroke-width:0.75px"></line></g><g id="freepik--character-2--inject-78"><polygon points="365.47 428.59 364.91 445.09 373.45 445.5 376.56 428.59 365.47 428.59" style="fill:#fff;stroke:#263238;stroke-linecap:round;stroke-linejoin:round"></polygon><path d="M348.76,450.15c2.88-1,7.86-2.7,9.73-3.87,1.5-.94,3.59-4,5.14-4.86a2.59,2.59,0,0,1,2.06,0,1.91,1.91,0,0,1,.47,1,.85.85,0,0,0,1.55.22,3.52,3.52,0,0,1,1-1.2c1.32-.74,4.89-.95,6.06,0,1.94,1.59,2.64,7.07,3,9.54.09.54,0,3.54,0,3.54H346.61v-1.37A3.14,3.14,0,0,1,348.76,450.15Z" style="fill:#fff;stroke:#263238;stroke-linecap:round;stroke-linejoin:round"></path><path d="M377.79,454.5H346.61v-1.37a3,3,0,0,1,.17-1h31.05C377.83,453.18,377.79,454.5,377.79,454.5Z" style="fill:#858585;stroke:#263238;stroke-linecap:round;stroke-linejoin:round"></path><path d="M370.86,300.67l-6.55,134.2,12,2s7.56-38.84,8.48-51.56c.22-3,0-12.05,0-12.05l8.49-41.79s5.59-5.16,6.24-29.73Z" style="fill:#263238;stroke:#263238;stroke-linecap:round;stroke-linejoin:round"></path><path d="M388.62,352.61c.46-1.94,1-3.85,1.65-5.75.1-.27.22-.52.34-.77a76.23,76.23,0,0,1,1.37-8.45,4.67,4.67,0,0,1,1.59-2.66,3.87,3.87,0,0,1,2.53-2.17,51.92,51.92,0,0,0-1.68-7.63c-.76-2.62-2-5.13-2.37-7.84-.1-.7-.5-1.43-.37-1.51a25.94,25.94,0,0,1-2.52-1.14l-.15-.12A379.06,379.06,0,0,0,388.62,352.61Z" style="opacity:0.7000000000000001"></path><path d="M370.29,377.43a12,12,0,0,0,5.64-3.07" style="fill:none;stroke:#7f7f7f;stroke-linecap:round;stroke-linejoin:round;stroke-width:0.75px"></path><polygon points="362.73 437.42 377.24 438.61 378.32 433.91 362.73 432.69 362.73 437.42" style="fill:#92E3A9;stroke:#263238;stroke-linecap:round;stroke-linejoin:round"></polygon><polygon points="404.63 426.56 407.72 445.85 415.62 445.23 415.36 425.48 404.63 426.56" style="fill:#fff;stroke:#263238;stroke-linecap:round;stroke-linejoin:round"></polygon><path d="M391.4,450.15c2.89-1,7.87-2.7,9.73-3.87,1.5-.94,3.6-4,5.14-4.86a2.61,2.61,0,0,1,2.07,0,1.46,1.46,0,0,1,.37.67,1,1,0,0,0,1.84.21,2.93,2.93,0,0,1,.8-.88c1.32-.74,4.89-.95,6.06,0,1.94,1.59,2.64,7.07,3,9.54.08.54,0,3.54,0,3.54H389.26v-1.37A3.14,3.14,0,0,1,391.4,450.15Z" style="fill:#fff;stroke:#263238;stroke-linecap:round;stroke-linejoin:round"></path><path d="M420.44,454.5H389.26v-1.37a3,3,0,0,1,.16-1h31.05C420.47,453.18,420.44,454.5,420.44,454.5Z" style="fill:#858585;stroke:#263238;stroke-linecap:round;stroke-linejoin:round"></path><path d="M387.56,304.72s3,17.37,5.76,31.94c1.88,9.88,2,39.07,2,39.07L404.9,436l11.81-1.59s.14-37.1-1.19-49c-.3-2.65-.79-10.52-.79-10.52s.45-31.48,2.88-42c1.74-7.5,5.2-15.38,1-30.75Z" style="fill:#263238;stroke:#263238;stroke-linecap:round;stroke-linejoin:round"></path><path d="M397.91,377.43a8.13,8.13,0,0,0,5,3.21" style="fill:none;stroke:#7f7f7f;stroke-linecap:round;stroke-linejoin:round;stroke-width:0.75px"></path><polygon points="402.92 433.29 403.6 437.71 418.24 436.14 418.14 431.38 402.92 433.29" style="fill:#92E3A9;stroke:#263238;stroke-linecap:round;stroke-linejoin:round"></polygon><path d="M331.83,224.37l-3.23-5.43s-.78-8.87-2.58-10.6-5.8-6.82-6.37-5.82c-.9,1.6,2.43,4.45,2.43,4.45l.61,3.3s-5.39-3.88-6.91-3.88c0,0-4.3-5.09-5.82-5.1s.62,3.52.62,3.52-1.45-1.11-1.73-.42,1.87,3.05,1.87,3.05-.83.9.42,2.83a3.53,3.53,0,0,0,1,3.53c1.66,1.32,10.58,6.37,10.58,6.37l3,7.06Z" style="fill:#858585;stroke:#263238;stroke-linecap:round;stroke-linejoin:round"></path><path d="M311.9,207.58s1.18.48.69,2.21a4.18,4.18,0,0,1,.76,2.28c.12,1.52,7.82.77,9.9,4" style="fill:none;stroke:#263238;stroke-linecap:round;stroke-linejoin:round;stroke-width:0.75px"></path><line x1="311.9" y1="205.71" x2="315.04" y2="209.03" style="fill:none;stroke:#263238;stroke-linecap:round;stroke-linejoin:round;stroke-width:0.75px"></line><path d="M365.17,223l-20.61,16.06-14.12-19.24-7.19,3.6s11.3,31.22,19.85,31.22c9.09,0,26.37-14.6,26.37-14.6S370.56,237.25,365.17,223Z" style="fill:#92E3A9;stroke:#263238;stroke-linecap:round;stroke-linejoin:round"></path><path d="M345.34,240.59a14.35,14.35,0,0,1,1.07,3.21" style="fill:none;stroke:#263238;stroke-linecap:round;stroke-linejoin:round;stroke-width:0.75px"></path><path d="M365.17,223l4.39,58.11v24.14s25.29,3,50.24-.64l-.86-24.85,2.53-55.39S409.89,216,392.11,216,365.17,223,365.17,223Z" style="fill:#92E3A9;stroke:#263238;stroke-linecap:round;stroke-linejoin:round"></path><path d="M419.8,304.61,419,282.34c-.43,10.73-12.27,6.7-14.95,6.2-2.87-.54-6.17,8.92-6.17,8.92s-11,1.89-19.61,1.22-8.74-8.53-8.74-8.53v15.1S394.85,308.29,419.8,304.61Z" style="opacity:0.2"></path><path d="M381.41,280.55a66.74,66.74,0,0,0,29.68-10.69" style="fill:#92E3A9;stroke:#263238;stroke-linecap:round;stroke-linejoin:round;stroke-width:0.75px"></path><path d="M377,280.85s.85,0,2.35-.11" style="fill:#92E3A9;stroke:#263238;stroke-linecap:round;stroke-linejoin:round;stroke-width:0.75px"></path><polygon points="385.56 225.8 381.18 224.21 377 228.25 380.06 215.75 383.75 212.85 385.63 214.04 394.03 213.72 400.56 214.25 403.67 213.29 406.99 216.61 399.6 230.74 396.5 225.39 389.66 226.24 385.56 225.8" style="fill:#92E3A9"></polygon><g style="clip-path:url(#freepik--clip-path-5--inject-78)"><polygon points="385.56 225.8 381.18 224.21 377 228.25 380.06 215.75 383.75 212.85 385.63 214.04 394.03 213.72 400.56 214.25 403.67 213.29 406.99 216.61 399.6 230.74 396.5 225.39 389.66 226.24 385.56 225.8" style="fill:#fff;opacity:0.5"></polygon></g><polygon points="385.56 225.8 381.18 224.21 377 228.25 380.06 215.75 383.75 212.85 385.63 214.04 394.03 213.72 400.56 214.25 403.67 213.29 406.99 216.61 399.6 230.74 396.5 225.39 389.66 226.24 385.56 225.8" style="fill:none;stroke:#263238;stroke-linecap:round;stroke-linejoin:round"></polygon><path d="M400.11,216.57l-1-15.28L389.45,203l-2,7.18-2,6.22-.95.1,2.63,14.28,13.94-14Z" style="fill:#858585"></path><g style="clip-path:url(#freepik--clip-path-6--inject-78)"><path d="M376.36,202.35c0,3.88.6,12.56,5.93,13.57,5.52,1.05,11.85-5.23,14.12-7.74a6.64,6.64,0,0,0,1.31-2.14l1.21-3.21a4.16,4.16,0,0,0,2.28-.48Z" style="fill:#263238;stroke:#263238;stroke-linecap:round;stroke-linejoin:round;stroke-width:0.5px"></path></g><path d="M400.11,216.57l-1-15.28L389.45,203l-2,7.18-2,6.22-.95.1,2.63,14.28,13.94-14Z" style="fill:none;stroke:#263238;stroke-linecap:round;stroke-linejoin:round"></path><path d="M382.8,182.73s-4.57-3.48-2.33-6.22c1.17-1.42,2.69.45,2.69.45s-.81-4.36,2.44-5c3-.56,2.88,2.88,2.88,2.88s1.55-2.95,4.26-2.29c2.16.52,1.33,3.58,1.33,3.58s2.88-3.58,5.86-2c2.57,1.35.45,4.59.45,4.59s3.06-1.08,4.77.64,0,4,0,4,3.37,0,3.52,2.52-2.61,3-2.61,3,3.9,1.26,3.93,4.32-2.58,2.08-2.58,2.08,1.62,2.88.27,4.41a1.63,1.63,0,0,1-2.62,0s1.69,3.63-.45,4.69c-1.53.75-2.43-1.09-2.43-1.09s-1.29,3.14-2.85,1.22-9.3-16.71-9.3-16.71Z" style="fill:#263238;stroke:#263238;stroke-linecap:round;stroke-linejoin:round;stroke-width:0.75px"></path><path d="M381.48,182.87l-2.88,6a4.7,4.7,0,0,0-.45,2l0,1.88-1.59,4a4.75,4.75,0,0,0-.2.64c-.51,2.13-2.94,13.57,3,15.9,5.24,2.06,12.62-2.91,15.33-4.95a6.53,6.53,0,0,0,1.68-1.87l1.8-2.92a3.78,3.78,0,0,0,4.19-1.47c1.61-2.31,3.47-3.56,1.26-5.64s-4.25,1.25-4.25,1.25l.3-5.87-2.56-4.5-.13-2.83s-8.38-.93-14-4Z" style="fill:#fff;stroke:#263238;stroke-linecap:round;stroke-linejoin:round;stroke-width:0.75px"></path><path d="M381.48,182.87l-2.88,6a4.7,4.7,0,0,0-.45,2l0,1.88-1.59,4a4.75,4.75,0,0,0-.2.64c-.51,2.13-2.94,13.57,3,15.9,5.24,2.06,12.62-2.91,15.33-4.95a6.53,6.53,0,0,0,1.68-1.87l1.8-2.92a3.78,3.78,0,0,0,4.19-1.47c1.61-2.31,3.47-3.56,1.26-5.64s-4.25,1.25-4.25,1.25l.3-5.87-2.56-4.5-.13-2.83s-8.38-.93-14-4Z" style="fill:#858585;stroke:#263238;stroke-linecap:round;stroke-linejoin:round"></path><path d="M386.58,203.36c-1.62,3.13-3.82,2.61-5.2,1.83" style="fill:none;stroke:#263238;stroke-linecap:round;stroke-linejoin:round;stroke-width:0.75px"></path><path d="M386.61,196.25c-.22.71-.67,1.2-1,1.1s-.44-.77-.22-1.48.67-1.21,1-1.1S386.83,195.54,386.61,196.25Z" style="fill:#263238"></path><path d="M379.93,194.18c-.22.72-.67,1.21-1,1.1s-.44-.77-.22-1.48.68-1.2,1-1.09S380.15,193.47,379.93,194.18Z" style="fill:#263238"></path><path d="M379.45,189.56a2,2,0,0,1,2.5,1.53" style="fill:none;stroke:#263238;stroke-linecap:round;stroke-linejoin:round;stroke-width:0.75px"></path><path d="M385.2,192.29s2.33-2.45,3.9.15" style="fill:none;stroke:#263238;stroke-linecap:round;stroke-linejoin:round;stroke-width:0.75px"></path><path d="M382,194.81A5.75,5.75,0,0,1,378.3,199l1.82,2.89" style="fill:none;stroke:#263238;stroke-linecap:round;stroke-linejoin:round;stroke-width:0.75px"></path><path d="M393.61,309.46l-.51,3.09a2,2,0,0,0,1.61,2.25l32.07,5.26a2,2,0,0,0,2.25-1.61l.5-3.09Z" style="fill:#92E3A9;stroke:#263238;stroke-linecap:round;stroke-linejoin:round;stroke-width:0.75px"></path><rect x="394.62" y="293.1" width="36.41" height="23.39" rx="1.77" transform="translate(54.84 -62.86) rotate(9.32)" style="fill:#92E3A9"></rect><g style="clip-path:url(#freepik--clip-path-7--inject-78)"><rect x="394.62" y="293.1" width="36.41" height="23.39" rx="1.77" transform="translate(54.84 -62.86) rotate(9.32)" style="fill:#fff;opacity:0.5"></rect></g><rect x="394.62" y="293.1" width="36.41" height="23.39" rx="1.77" transform="translate(54.84 -62.86) rotate(9.32)" style="fill:none;stroke:#263238;stroke-linecap:round;stroke-linejoin:round"></rect><path d="M418.45,299.54l-1.77,6-6,4.29a71,71,0,0,1-3,7.71.94.94,0,0,0,.78,1.39c.83,0,1.8-.39,2.33-2,0,0,.23,3.16,2.18,1.23,0,0,1.19,3.06,3.05.65,0,0,4.31.64,5-2.47s1.71-8.59,1.71-8.59l2.74-6.43Z" style="fill:#858585;stroke:#263238;stroke-linecap:round;stroke-linejoin:round"></path><line x1="410.75" y1="315.7" x2="411.43" y2="311.07" style="fill:none;stroke:#263238;stroke-linecap:round;stroke-linejoin:round;stroke-width:0.75px"></line><path d="M411.82,316s.47,1.53,1.53,1.28,2.57.93,5.87-.46" style="fill:none;stroke:#263238;stroke-linecap:round;stroke-linejoin:round;stroke-width:0.75px"></path><path d="M421.47,224.37s15,41.68,14.72,47.77-10.95,32.58-10.95,32.58L417,302.1l5.5-31.07-4.93-21.59S416.45,233.61,421.47,224.37Z" style="fill:#92E3A9;stroke:#263238;stroke-linecap:round;stroke-linejoin:round"></path><path d="M424.35,270.34a4.67,4.67,0,0,1,3.94-.83" style="fill:none;stroke:#263238;stroke-linecap:round;stroke-linejoin:round;stroke-width:0.75px"></path><path d="M414.6,302.76a4.07,4.07,0,0,1-.66-1.32,2.28,2.28,0,0,0-.41,4.53,2.29,2.29,0,0,0,2.63-1.88v0A3.42,3.42,0,0,1,414.6,302.76Z" style="fill:#fff"></path></g><g id="freepik--character-1--inject-78"><polygon points="121.94 214.79 123.76 223.76 103.54 224.61 107.05 199.75 120.67 201.33 121.94 214.79" style="fill:#fff"></polygon><g style="clip-path:url(#freepik--clip-path-8--inject-78)"><path d="M131,201.18l-16.91,5a29.61,29.61,0,0,0,1.2,5.71c1,2.88,7.09,8,11,7.94s4.35-12.52,4.35-12.52L133,206a1.1,1.1,0,0,0,.34-1.61Z" style="fill:#263238;stroke:#263238;stroke-linecap:round;stroke-linejoin:round;stroke-width:0.75px"></path></g><polygon points="121.94 214.79 123.76 223.76 103.54 224.61 107.05 199.75 120.67 201.33 121.94 214.79" style="fill:none;stroke:#263238;stroke-linecap:round;stroke-linejoin:round"></polygon><path d="M122.87,183.19s4.91,1,4.41-4.33-9.65-2.07-14.42-1.47-20.17,6.35-14.72,15.43c0,0-3.21,5.12,8.35,13.71,0,0,5.49-2.58,8.5,1.19l2.35-4.58,6-10.54Z" style="fill:#263238;stroke:#263238;stroke-linecap:round;stroke-linejoin:round"></path><path d="M122.51,182.39s4.7,2.62,7.4-.66C129.91,181.73,130.21,188.73,122.51,182.39Z" style="fill:#263238;stroke:#263238;stroke-linecap:round;stroke-linejoin:round"></path><path d="M123,181.66s7,7.37,6.76,12.42v4.61l3.7,4.16a1,1,0,0,1-.18,1.54l-2.15,1.49s.63,11.8-3.07,12.22-9.86-4-11.09-6.6a36.14,36.14,0,0,1-2-7.39,5.59,5.59,0,0,1-4.09-4.74c-.43-3.88,3.48-3.77,4.49-1.23l.82,2.07,2.54-.09s-1.45-3.66-.59-4.74,4.24-3.71,2.69-6.22S119.8,182.38,123,181.66Z" style="fill:#fff;stroke:#263238;stroke-linecap:round;stroke-linejoin:round"></path><path d="M127,208.19a2.83,2.83,0,0,0,3,1.39" style="fill:none;stroke:#263238;stroke-linecap:round;stroke-linejoin:round;stroke-width:0.75px"></path><path d="M125.16,194.11s1.59-2.21,3.1-.19" style="fill:none;stroke:#263238;stroke-linecap:round;stroke-linejoin:round"></path><path d="M127.67,198.72c0,.69-.27,1.26-.64,1.27s-.69-.54-.71-1.23.27-1.26.64-1.27S127.65,198,127.67,198.72Z" style="fill:#263238"></path><polygon points="95.6 420.24 92.68 445.37 101.37 446.71 106.16 421.87 95.6 420.24" style="fill:#fff;stroke:#263238;stroke-linecap:round;stroke-linejoin:round"></polygon><path d="M91.51,309.2S91.86,323.76,97,334l1.17,38.64-5.93,62.26,13.19,1.26,12-65.12,4-59Z" style="fill:#92E3A9;stroke:#263238;stroke-linecap:round;stroke-linejoin:round"></path><path d="M119.57,340.41l-1.1-6.93-5-21.81-.92-.47-21-2s0,2.39.47,5.92L102.39,321a34.68,34.68,0,0,0,2.47,10.75,1.89,1.89,0,0,1-1.9,2.61c-1.07-.08-2,0-2,.7,0,1.62,7.82,6.85,7.82,6.85s7.89,25.5,7.61,34.92l1.07-5.8Z" style="opacity:0.2"></path><polygon points="122.12 421.89 123.07 447.17 131.86 447.17 132.8 421.89 122.12 421.89" style="fill:#fff;stroke:#263238;stroke-linecap:round;stroke-linejoin:round"></polygon><path d="M145.86,450.73a54.68,54.68,0,0,1-8.44-3.36c-1.3-.81-3.12-3.46-4.46-4.21a2.25,2.25,0,0,0-1.78,0c-.64.52-.67,3.23-.67,3.23s-1.13-2.76-1.95-3.23c-1.14-.64-4.24-.83-5.25,0-1.68,1.37-2.29,6.13-2.62,8.27-.08.47,0,3.07,0,3.07h27v-1.19A2.72,2.72,0,0,0,145.86,450.73Z" style="fill:#263238;stroke:#263238;stroke-linecap:round;stroke-linejoin:round"></path><path d="M140.51,310.4l-2.16,58.41-3.61,66.69H121s-2.88-51.19-2.16-66l-7.21-34.25s-7.57-10.1-5.77-22.35Z" style="fill:#92E3A9;stroke:#263238;stroke-linecap:round;stroke-linejoin:round"></path><polygon points="119.78 430.54 120.23 438.56 135.28 438.56 136.45 430.54 119.78 430.54" style="fill:#92E3A9;stroke:#263238;stroke-linecap:round;stroke-linejoin:round"></polygon><polygon points="91.14 429.85 90.83 437.87 105.81 439.3 107.74 431.43 91.14 429.85" style="fill:#92E3A9;stroke:#263238;stroke-linecap:round;stroke-linejoin:round"></polygon><polygon points="163.29 271.95 142.5 258.73 164.41 236.82 185.21 250.04 163.29 271.95" style="fill:#92E3A9;stroke:#263238;stroke-linecap:round;stroke-linejoin:round"></polygon><polygon points="164.48 267.43 147.76 256.8 165.38 239.18 182.1 249.81 164.48 267.43" style="fill:#fff;stroke:#263238;stroke-linecap:round;stroke-linejoin:round;stroke-width:0.75px"></polygon><polygon points="165.7 249.18 168.62 246.26 164.87 243.88 161.95 246.79 165.7 249.18" style="fill:none;stroke:#263238;stroke-linecap:round;stroke-linejoin:round;stroke-width:0.75px"></polygon><polygon points="161.17 253.72 164.09 250.8 160.33 248.41 157.42 251.33 161.17 253.72" style="fill:none;stroke:#263238;stroke-linecap:round;stroke-linejoin:round;stroke-width:0.75px"></polygon><polygon points="156.48 258.41 159.39 255.49 155.64 253.1 152.72 256.02 156.48 258.41" style="fill:none;stroke:#263238;stroke-linecap:round;stroke-linejoin:round;stroke-width:0.75px"></polygon><path d="M172.85,240.23,170.09,243a1.23,1.23,0,0,0,.21,1.91l4,2.57a2.3,2.3,0,0,0,2.86-.31l2.55-2.56Z" style="fill:#858585;stroke:#263238;stroke-linecap:round;stroke-linejoin:round"></path><path d="M98.87,223.16l3.61-7.93s20.91-2.34,26.49,15.14Z" style="fill:#858585;stroke:#263238;stroke-linecap:round;stroke-linejoin:round"></path><path d="M87,229.92s-5.16,39.53-3.79,53.54c1.08,11.08,8.38,20.46,8.38,20.46l10.82-4.24-5.5-16.22s1.71-29.2,3.33-36Z" style="fill:#858585;stroke:#263238;stroke-linecap:round;stroke-linejoin:round"></path><polygon points="88.46 301.98 91.51 305.63 104.01 300.76 102.39 295.89 88.46 301.98" style="fill:#858585;stroke:#263238;stroke-linecap:round;stroke-linejoin:round"></polygon><path d="M87,229.92s-1.63,22.71,3,38.67,0,42.17,0,42.17S111.31,324.55,144,314c0,0-4.05-77.6-9.46-81.92S98.6,211.27,87,229.92Z" style="fill:#858585;stroke:#263238;stroke-linecap:round;stroke-linejoin:round"></path><path d="M144,314s-1.39-26.6-3.62-49.52c-4.73-11.48-12.46-26.77-12.87-5.3-.6,31.05,18.51,29.22,3.37,34.63A24.61,24.61,0,0,1,110,292.19a1.24,1.24,0,0,0-1.54,1.87c3.8,4.83,9.57,7.84,14,9.57a1.94,1.94,0,0,1-.4,3.73c-14.26,2.11-25.44-5.47-30.57-9.88-.6,7.64-1.59,13.28-1.59,13.28S111.31,324.55,144,314Z" style="opacity:0.2"></path><path d="M134.56,232.09a12.72,12.72,0,0,1,7.3,9.86c1.08,7.44,8,30.29,8,30.29l2.3-1.49A9.56,9.56,0,0,1,157.68,281s-5.62,11-11.76,8.93c-6.31-2.14-9.84-7.3-13-15.74-1.67-4.5-6.49-18.06-6.49-18.06" style="fill:#858585;stroke:#263238;stroke-linecap:round;stroke-linejoin:round"></path><path d="M152.62,278.86a8.26,8.26,0,0,1-.08,1.76" style="fill:none;stroke:#263238;stroke-linecap:round;stroke-linejoin:round;stroke-width:0.75px"></path><path d="M148.49,283.46s1.89-3,1.62-9.47a6,6,0,0,1,2,2.69" style="fill:none;stroke:#263238;stroke-linecap:round;stroke-linejoin:round;stroke-width:0.75px"></path><path d="M153.67,270.12l7.21-5.14a9.11,9.11,0,0,1,6.4-6.76s3.33-5.5,5.22-4.86-2.25,2.88-2.61,5.76l1.53,2.05s5-.88,6.22-2.5c0,0-.27,3.43-2.25,4,0,0,0,2.61-1.35,2.52l-9.92,2.8-5.77,10.77Z" style="fill:#fff;stroke:#263238;stroke-linecap:round;stroke-linejoin:round"></path><path d="M124.15,295.12a22,22,0,0,0,3.38-.58" style="fill:none;stroke:#263238;stroke-linecap:round;stroke-linejoin:round;stroke-width:0.75px"></path><path d="M95.81,278.73s10.63,16.26,26,16.48" style="fill:none;stroke:#263238;stroke-linecap:round;stroke-linejoin:round;stroke-width:0.75px"></path><path d="M150.56,270.3s7.52,5.68,6.8,12.53l2.71-5.19s-.09-4.37-6.31-9Z" style="fill:#858585;stroke:#263238;stroke-linecap:round;stroke-linejoin:round"></path><path d="M120.69,454.5h27v-1.19a2.72,2.72,0,0,0-.14-.86H120.65C120.65,453.36,120.69,454.5,120.69,454.5Z" style="fill:#fff;stroke:#263238;stroke-linecap:round;stroke-linejoin:round;stroke-width:0.75px"></path><path d="M115,450.73a54.68,54.68,0,0,1-8.44-3.36c-1.3-.81-3.12-3.46-4.45-4.21a2.27,2.27,0,0,0-1.79,0c-.64.52-.67,3.23-.67,3.23s-1.12-2.76-1.95-3.23c-1.14-.64-4.24-.83-5.25,0-1.68,1.37-2.29,6.13-2.62,8.27-.08.47,0,3.07,0,3.07h27v-1.19A2.72,2.72,0,0,0,115,450.73Z" style="fill:#263238;stroke:#263238;stroke-linecap:round;stroke-linejoin:round"></path><path d="M89.81,454.5h27v-1.19a2.72,2.72,0,0,0-.14-.86H89.77C89.77,453.36,89.81,454.5,89.81,454.5Z" style="fill:#fff;stroke:#263238;stroke-linecap:round;stroke-linejoin:round;stroke-width:0.75px"></path><path d="M129.64,369.89s-2.87,4.95-7.52,3.06" style="fill:none;stroke:#263238;stroke-linecap:round;stroke-linejoin:round;stroke-width:0.75px"></path><path d="M109.63,371.63s-5.15,4.4-9.41,1.32" style="fill:none;stroke:#263238;stroke-linecap:round;stroke-linejoin:round;stroke-width:0.75px"></path><polygon points="163.37 243.53 164.09 247.11 170.47 247.11 165.28 245.9 165.53 243.46 163.37 243.53" style="fill:#92E3A9"></polygon></g></svg>